<?xml version="1.0" standalone="no"?>
<!DOCTYPE svg PUBLIC "-//W3C//DTD SVG 20010904//EN"
 "http://www.w3.org/TR/2001/REC-SVG-20010904/DTD/svg10.dtd">
<svg version="1.0" xmlns="http://www.w3.org/2000/svg"
 width="200.000000pt" height="200.000000pt" viewBox="0 0 200.000000 200.000000"
 preserveAspectRatio="xMidYMid meet">
<metadata>
Created by potrace 1.14, written by Peter Selinger 2001-2017
</metadata>
<g transform="translate(0.000000,200.000000) scale(0.100000,-0.100000)"
fill="#000000" stroke="none">
<path d="M924 1901 c-161 -55 -216 -253 -107 -381 51 -59 104 -84 184 -84 58
0 74 5 121 33 67 41 108 103 115 178 19 179 -145 311 -313 254z m114 -167 c30
-21 41 -53 30 -85 -26 -74 -138 -55 -138 23 0 38 7 50 35 66 28 16 47 15 73
-4z"/>
<path d="M600 1652 c-36 -12 -140 -90 -194 -146 -154 -159 -234 -354 -238
-582 -1 -93 13 -132 58 -150 25 -10 36 -10 62 3 39 19 45 36 47 143 2 47 5 99
9 115 3 17 8 39 10 50 21 106 120 263 216 342 123 101 130 108 130 139 0 16
-7 39 -15 51 -17 24 -62 43 -85 35z"/>
<path d="M1363 1648 c-39 -10 -63 -42 -63 -82 0 -31 7 -38 130 -139 74 -61
157 -175 189 -263 30 -79 42 -143 45 -245 4 -108 9 -123 48 -142 27 -13 37
-13 62 -3 17 7 37 23 44 37 16 31 14 199 -4 285 -42 201 -175 400 -339 510
-80 54 -76 52 -112 42z"/>
<path d="M312 705 c-52 -24 -107 -80 -128 -132 -34 -80 -13 -187 49 -251 52
-54 103 -76 177 -75 69 0 105 13 159 59 95 80 103 245 16 342 -64 72 -186 97
-273 57z m143 -170 c33 -32 33 -74 1 -104 -34 -32 -89 -23 -111 19 -39 75 51
145 110 85z"/>
<path d="M1535 718 c-132 -29 -214 -176 -170 -307 41 -125 165 -192 296 -159
50 13 127 80 150 133 24 53 24 147 0 200 -46 101 -163 157 -276 133z m103
-178 c49 -46 19 -130 -46 -130 -66 0 -97 89 -46 129 34 27 64 27 92 1z"/>
<path d="M662 292 c-31 -24 -43 -70 -26 -103 34 -68 318 -126 472 -97 26 4 59
11 75 13 36 7 115 34 148 51 48 24 54 90 13 131 -29 29 -39 28 -169 -11 -111
-34 -263 -31 -380 7 -94 31 -103 32 -133 9z"/>
</g>
</svg>
